<svg width="433" height="742" viewBox="0 0 433 742" fill="none" xmlns="http://www.w3.org/2000/svg">
<path d="M79.2366 70.5371L29.4641 2C-56.5066 206.1 86.2751 171.831 30.9723 286.228C-24.3305 400.624 9.85672 445.476 30.9723 494.863C47.8648 534.372 38.0109 564.744 30.9723 574.991L79.2366 640C168.727 461.602 29.4641 451.019 79.2366 357.788C129.009 264.558 107.391 195.517 79.2366 149.153C56.7133 112.063 69.8519 81.288 79.2366 70.5371Z" stroke="#B48A7C"/>
<path d="M353.763 70.5371L403.536 2C489.507 206.1 346.725 171.831 402.028 286.228C457.33 400.624 423.143 445.476 402.028 494.863C385.135 534.372 394.989 564.744 402.028 574.991L353.763 640C264.273 461.602 403.536 451.019 353.763 357.788C303.991 264.558 325.609 195.517 353.763 149.153C376.287 112.063 363.148 81.288 353.763 70.5371Z" stroke="#B48A7C"/>
<path d="M42 689C100.167 728 254.9 782.6 408.5 689" stroke="#A47864" stroke-width="2"/>
<path d="M173.597 723.409L173.587 723.363C173.915 723.218 174.308 723.122 174.767 723.073C175.236 723.015 175.729 723.015 176.246 723.073C176.882 723.145 177.452 723.309 177.956 723.567C178.47 723.827 178.892 724.196 179.22 724.676C179.56 725.147 179.795 725.737 179.927 726.446C180.068 727.156 180.085 727.993 179.976 728.957C179.867 729.931 179.649 730.747 179.323 731.405C179.008 732.063 178.612 732.587 178.135 732.976C177.67 733.357 177.143 733.614 176.554 733.749C175.966 733.875 175.354 733.901 174.718 733.83C174.47 733.802 174.219 733.748 173.966 733.67C173.723 733.602 173.49 733.525 173.268 733.44C173.057 733.346 172.861 733.253 172.68 733.163C172.51 733.063 172.379 732.978 172.286 732.907L172.534 730.701L173.638 730.825L173.47 732.316C173.679 732.42 173.915 732.522 174.175 732.621C174.447 732.712 174.751 732.777 175.089 732.815C175.477 732.858 175.867 732.832 176.26 732.735C176.654 732.639 177.017 732.453 177.349 732.179C177.682 731.904 177.966 731.528 178.201 731.052C178.446 730.576 178.609 729.976 178.69 729.25L174.994 728.834L175.118 727.731L178.8 728.145C178.852 727.497 178.82 726.935 178.703 726.459C178.586 725.973 178.401 725.565 178.146 725.234C177.891 724.904 177.578 724.647 177.206 724.464C176.845 724.273 176.436 724.151 175.979 724.1C175.721 724.071 175.48 724.064 175.257 724.079C175.035 724.084 174.827 724.101 174.633 724.129L174.456 725.694L173.353 725.57L173.597 723.409Z" fill="#A47864"/>
<path d="M200.891 731.645L199.739 731.562L199.391 736.409L198.149 736.32L198.9 725.847L200.142 725.936L199.807 730.604L200.929 730.685L204.631 726.258L206.067 726.362L202.014 731.079L205.779 736.868L204.208 736.755L200.891 731.645Z" fill="#A47864"/>
<path d="M222.276 726.988C222.656 726.898 223.066 726.838 223.506 726.808C223.946 726.778 224.381 726.763 224.811 726.763C225.271 726.763 225.736 726.808 226.206 726.898C226.686 726.988 227.121 727.153 227.511 727.393C227.901 727.633 228.216 727.963 228.456 728.383C228.706 728.803 228.831 729.338 228.831 729.988C228.831 730.628 228.716 731.168 228.486 731.608C228.256 732.048 227.951 732.408 227.571 732.688C227.191 732.958 226.756 733.153 226.266 733.273C225.776 733.393 225.271 733.453 224.751 733.453C224.701 733.453 224.616 733.453 224.496 733.453C224.386 733.453 224.266 733.453 224.136 733.453C224.016 733.443 223.896 733.433 223.776 733.423C223.656 733.413 223.571 733.403 223.521 733.393V737.383H222.276V726.988ZM224.841 727.843C224.581 727.843 224.331 727.848 224.091 727.858C223.851 727.868 223.661 727.893 223.521 727.933V732.283C223.571 732.303 223.651 732.318 223.761 732.328C223.871 732.328 223.986 732.333 224.106 732.343C224.226 732.343 224.341 732.343 224.451 732.343C224.561 732.343 224.641 732.343 224.691 732.343C225.031 732.343 225.366 732.313 225.696 732.253C226.036 732.183 226.341 732.063 226.611 731.893C226.881 731.723 227.096 731.483 227.256 731.173C227.426 730.863 227.511 730.468 227.511 729.988C227.511 729.578 227.431 729.238 227.271 728.968C227.121 728.688 226.916 728.468 226.656 728.308C226.406 728.138 226.121 728.018 225.801 727.948C225.481 727.878 225.161 727.843 224.841 727.843Z" fill="#A47864"/>
<path d="M251.164 733.253L247.138 733.524L246.375 736.492L245.148 736.574L247.946 725.862L249.412 725.764L253.649 736.003L252.347 736.09L251.164 733.253ZM247.454 732.42L250.747 732.199L248.875 727.378L248.695 727.391L247.454 732.42Z" fill="#A47864"/>
<path d="M275.877 728.396L271.208 729.017L271.843 733.79L270.609 733.954L269.225 723.546L270.459 723.381L271.062 727.917L275.731 727.296L275.128 722.76L276.362 722.596L277.746 733.005L276.512 733.169L275.877 728.396Z" fill="#A47864"/>
</svg>
